<svg width="36" height="34" viewBox="0 0 36 34" fill="none" xmlns="http://www.w3.org/2000/svg">
<path d="M12.7813 0.125H3.37506C2.05476 0.125 0.984436 1.19532 0.984436 2.51563V11.9219C0.984436 13.2422 2.05476 14.3125 3.37506 14.3125H12.7813C14.1016 14.3125 15.1719 13.2422 15.1719 11.9219V2.51563C15.1719 1.19532 14.1016 0.125 12.7813 0.125Z" fill="#82868C"/>
<path d="M32.6251 0.125H23.2188C21.8985 0.125 20.8282 1.19532 20.8282 2.51563V11.9219C20.8282 13.2422 21.8985 14.3125 23.2188 14.3125H32.6251C33.9454 14.3125 35.0157 13.2422 35.0157 11.9219V2.51563C35.0157 1.19532 33.9454 0.125 32.6251 0.125Z" fill="#82868C"/>
<path d="M12.7813 19.6875H3.37506C2.05476 19.6875 0.984436 20.7578 0.984436 22.0781V31.4844C0.984436 32.8047 2.05476 33.875 3.37506 33.875H12.7813C14.1016 33.875 15.1719 32.8047 15.1719 31.4844V22.0781C15.1719 20.7578 14.1016 19.6875 12.7813 19.6875Z" fill="#82868C"/>
<path d="M32.6251 19.6875H23.2188C21.8985 19.6875 20.8282 20.7578 20.8282 22.0781V31.4844C20.8282 32.8047 21.8985 33.875 23.2188 33.875H32.6251C33.9454 33.875 35.0157 32.8047 35.0157 31.4844V22.0781C35.0157 20.7578 33.9454 19.6875 32.6251 19.6875Z" fill="#82868C"/>
</svg>
