<svg width="50" height="50" viewBox="0 0 50 50" fill="none" xmlns="http://www.w3.org/2000/svg">
<path d="M19.7812 8.125H10.375C9.05469 8.125 7.98438 9.19532 7.98438 10.5156V19.9219C7.98438 21.2422 9.05469 22.3125 10.375 22.3125H19.7812C21.1016 22.3125 22.1719 21.2422 22.1719 19.9219V10.5156C22.1719 9.19532 21.1016 8.125 19.7812 8.125Z" stroke="#82868C" stroke-width="1.5" stroke-linecap="round" stroke-linejoin="round"/>
<path d="M39.625 8.125H30.2188C28.8984 8.125 27.8281 9.19532 27.8281 10.5156V19.9219C27.8281 21.2422 28.8984 22.3125 30.2188 22.3125H39.625C40.9453 22.3125 42.0156 21.2422 42.0156 19.9219V10.5156C42.0156 9.19532 40.9453 8.125 39.625 8.125Z" stroke="#82868C" stroke-width="1.5" stroke-linecap="round" stroke-linejoin="round"/>
<path d="M19.7812 27.6875H10.375C9.05469 27.6875 7.98438 28.7578 7.98438 30.0781V39.4844C7.98438 40.8047 9.05469 41.875 10.375 41.875H19.7812C21.1016 41.875 22.1719 40.8047 22.1719 39.4844V30.0781C22.1719 28.7578 21.1016 27.6875 19.7812 27.6875Z" stroke="#82868C" stroke-width="1.5" stroke-linecap="round" stroke-linejoin="round"/>
<path d="M39.625 27.6875H30.2188C28.8984 27.6875 27.8281 28.7578 27.8281 30.0781V39.4844C27.8281 40.8047 28.8984 41.875 30.2188 41.875H39.625C40.9453 41.875 42.0156 40.8047 42.0156 39.4844V30.0781C42.0156 28.7578 40.9453 27.6875 39.625 27.6875Z" stroke="#82868C" stroke-width="1.5" stroke-linecap="round" stroke-linejoin="round"/>
</svg>
