<svg width="50" height="50" viewBox="0 0 50 50" fill="none" xmlns="http://www.w3.org/2000/svg">
<path d="M25.3906 24.628C30.2499 24.628 34.189 20.6888 34.189 15.8296C34.189 10.9704 30.2499 7.03125 25.3906 7.03125C20.5314 7.03125 16.5923 10.9704 16.5923 15.8296C16.5923 20.6888 20.5314 24.628 25.3906 24.628Z" stroke="#82868C" stroke-width="1.5" stroke-linecap="round" stroke-linejoin="round"/>
<path d="M25.3906 27.8274C20.7466 27.9546 16.1957 29.1594 12.0971 31.3467C11.0424 31.8819 10.1567 32.6989 9.53824 33.707C8.91981 34.7152 8.59288 35.875 8.59375 37.0577V38.2255C8.59375 38.8619 8.84656 39.4722 9.29656 39.9222C9.74657 40.3722 10.3569 40.625 10.9933 40.625H39.7879C40.4243 40.625 41.0347 40.3722 41.4847 39.9222C41.9347 39.4722 42.1875 38.8619 42.1875 38.2255V37.0577C42.1884 35.875 41.8614 34.7152 41.243 33.707C40.6246 32.6989 39.7388 31.8819 38.6841 31.3467C34.5855 29.1594 30.0346 27.9546 25.3906 27.8274V27.8274Z" stroke="#82868C" stroke-width="1.5" stroke-linecap="round" stroke-linejoin="round"/>
</svg>
