<svg width="50" height="50" viewBox="0 0 50 50" fill="none" xmlns="http://www.w3.org/2000/svg">
<path d="M8.33336 22.9166C8.33336 24.1528 8.69991 25.3611 9.38667 26.3889C10.0734 27.4167 11.0495 28.2178 12.1916 28.6909C13.3336 29.1639 14.5903 29.2877 15.8027 29.0465C17.0151 28.8054 18.1287 28.2101 19.0028 27.336C19.8769 26.462 20.4721 25.3483 20.7133 24.1359C20.9544 22.9236 20.8307 21.6669 20.3576 20.5249C19.8846 19.3828 19.0835 18.4067 18.0557 17.7199C17.0279 17.0332 15.8195 16.6666 14.5834 16.6666C12.9258 16.6666 11.336 17.3251 10.1639 18.4972C8.99184 19.6693 8.33336 21.259 8.33336 22.9166ZM16.6667 22.9166C16.6667 23.3287 16.5445 23.7315 16.3156 24.0741C16.0867 24.4167 15.7613 24.6837 15.3806 24.8414C14.9999 24.9991 14.581 25.0403 14.1769 24.9599C13.7728 24.8795 13.4016 24.6811 13.1102 24.3898C12.8189 24.0984 12.6204 23.7272 12.5401 23.3231C12.4597 22.9189 12.5009 22.5 12.6586 22.1194C12.8163 21.7387 13.0833 21.4133 13.4259 21.1844C13.7685 20.9555 14.1713 20.8333 14.5834 20.8333C15.1359 20.8333 15.6658 21.0528 16.0565 21.4435C16.4472 21.8342 16.6667 22.3641 16.6667 22.9166ZM31.25 27.0833C29.0158 27.0823 26.8113 27.5946 24.8065 28.5807C22.8018 29.5669 21.0504 31.0004 19.6875 32.7708C18.9534 32.3689 18.1686 32.0676 17.3542 31.875H17.0209C15.42 31.4788 13.7467 31.4788 12.1459 31.875H11.8125C9.62787 32.4192 7.68821 33.6789 6.30257 35.4535C4.91693 37.228 4.16504 39.4152 4.16669 41.6666V43.75H45.8334V41.6666C45.8334 37.7989 44.2969 34.0896 41.562 31.3546C38.8271 28.6197 35.1178 27.0833 31.25 27.0833ZM16.8125 39.5833H8.70836C9.04691 38.6761 9.60446 37.8666 10.3314 37.2269C11.0583 36.5872 11.9321 36.1371 12.875 35.9166H13.2084C14.153 35.6877 15.1387 35.6877 16.0834 35.9166H16.4167C16.8688 36.021 17.3038 36.1893 17.7084 36.4166C17.2902 37.4346 16.9896 38.4971 16.8125 39.5833Z" fill="#82868C"/>
<path d="M31.25 25C35.8524 25 39.5834 21.269 39.5834 16.6666C39.5834 12.0643 35.8524 8.33331 31.25 8.33331C26.6476 8.33331 22.9167 12.0643 22.9167 16.6666C22.9167 21.269 26.6476 25 31.25 25Z" fill="#82868C"/>
</svg>
